<?xml version="1.0" encoding="UTF-8" standalone="no"?>
<svg
   xmlns:dc="http://purl.org/dc/elements/1.1/"
   xmlns:cc="http://creativecommons.org/ns#"
   xmlns:rdf="http://www.w3.org/1999/02/22-rdf-syntax-ns#"
   xmlns:svg="http://www.w3.org/2000/svg"
   xmlns="http://www.w3.org/2000/svg"
   xmlns:sodipodi="http://sodipodi.sourceforge.net/DTD/sodipodi-0.dtd"
   xmlns:inkscape="http://www.inkscape.org/namespaces/inkscape"
   height="300px"
   width="300px"
   fill="#808080"
   viewBox="0 0 100 100"
   x="0px"
   y="0px"
   version="1.1"
   id="svg8"
   sodipodi:docname="filter.svg"
   inkscape:version="1.0.2 (e86c870879, 2021-01-15)">
  <metadata
     id="metadata14">
    <rdf:RDF>
      <cc:Work
         rdf:about="">
        <dc:format>image/svg+xml</dc:format>
        <dc:type
           rdf:resource="http://purl.org/dc/dcmitype/StillImage" />
      </cc:Work>
    </rdf:RDF>
  </metadata>
  <defs
     id="defs12" />
  <sodipodi:namedview
     pagecolor="#ffffff"
     bordercolor="#666666"
     borderopacity="1"
     objecttolerance="10"
     gridtolerance="10"
     guidetolerance="10"
     inkscape:pageopacity="0"
     inkscape:pageshadow="2"
     inkscape:window-width="1366"
     inkscape:window-height="768"
     id="namedview10"
     showgrid="false"
     inkscape:zoom="0.96166667"
     inkscape:cx="86.048527"
     inkscape:cy="150"
     inkscape:window-x="0"
     inkscape:window-y="0"
     inkscape:window-maximized="0"
     inkscape:current-layer="svg8" />
  <title
     id="title2">35</title>
  <g
     data-name="Layer 11"
     id="g6"
     transform="matrix(1.4107727,0,0,1.4107727,-20.539099,-20.537597)">
    <path
       d="M 80.28,16.09 A 2,2 0 0 0 78.5,15 h -57 a 2,2 0 0 0 -1.61,3.18 L 41,47.07 V 78 a 2,2 0 0 0 1.33,1.88 l 14,5 A 2,2 0 0 0 58.15,84.63 2,2 0 0 0 59,83 V 47.07 L 80.11,18.18 a 2,2 0 0 0 0.17,-2.09 z M 55.38,45.24 A 2,2 0 0 0 55,46.42 V 80.16 L 45,76.59 V 46.42 A 2,2 0 0 0 44.62,45.24 L 25.44,19 h 49.12 z"
       id="path4" />
  </g>
</svg>
