<svg xmlns="http://www.w3.org/2000/svg" xmlns:xlink="http://www.w3.org/1999/xlink" width="1200" height="1200" viewBox="0 0 1200 1200"><rect width="100%" height="100%" fill="#FFFFFF"/><g transform="translate(600 600) scale(0.69 0.69) rotate(0) translate(-600 -600)" style="fill:#000000"><svg fill="#000000" xmlns="http://www.w3.org/2000/svg" xmlns:xlink="http://www.w3.org/1999/xlink" version="1.1" x="0px" y="0px" viewBox="0 0 64 64" style="enable-background:new 0 0 64 64;" xml:space="preserve"><g><path d="M4,56c-2.2,0-4,1.8-4,4s1.8,4,4,4s4-1.8,4-4S6.2,56,4,56z M4,62c-1.1,0-2-0.9-2-2c0-1.1,0.9-2,2-2s2,0.9,2,2   C6,61.1,5.1,62,4,62z"/><path d="M61,56.1V34h-2v22.1c-1.4,0.4-2.5,1.5-2.9,2.9H33.9c-0.4-1.7-2-3-3.9-3c-2.2,0-4,1.8-4,4s1.8,4,4,4c1.9,0,3.4-1.3,3.9-3   h22.3c0.4,1.7,2,3,3.9,3c2.2,0,4-1.8,4-4C64,58.1,62.7,56.6,61,56.1z M30,62c-1.1,0-2-0.9-2-2c0-1.1,0.9-2,2-2s2,0.9,2,2   C32,61.1,31.1,62,30,62z M60,62c-1.1,0-2-0.9-2-2c0-1.1,0.9-2,2-2s2,0.9,2,2C62,61.1,61.1,62,60,62z"/><path d="M20,45c-2.2,0-4,1.8-4,4s1.8,4,4,4s4-1.8,4-4S22.2,45,20,45z M20,51c-1.1,0-2-0.9-2-2c0-1.1,0.9-2,2-2s2,0.9,2,2   C22,50.1,21.1,51,20,51z"/><path d="M13,20c1.9,0,3.4-1.3,3.9-3H29v7.1c-1.7,0.4-3,2-3,3.9c0,2.2,1.8,4,4,4s4-1.8,4-4c0-1.9-1.3-3.4-3-3.9V7.9   c1.7-0.4,3-2,3-3.9c0-2.2-1.8-4-4-4s-4,1.8-4,4c0,1.9,1.3,3.4,3,3.9V15H16.9c-0.4-1.7-2-3-3.9-3c-2.2,0-4,1.8-4,4S10.8,20,13,20z    M32,28c0,1.1-0.9,2-2,2s-2-0.9-2-2c0-1.1,0.9-2,2-2S32,26.9,32,28z M28,4c0-1.1,0.9-2,2-2s2,0.9,2,2c0,1.1-0.9,2-2,2S28,5.1,28,4z    M13,14c1.1,0,2,0.9,2,2c0,1.1-0.9,2-2,2s-2-0.9-2-2C11,14.9,11.9,14,13,14z"/><path d="M47,20c0,2.2,1.8,4,4,4s4-1.8,4-4s-1.8-4-4-4S47,17.8,47,20z M53,20c0,1.1-0.9,2-2,2s-2-0.9-2-2c0-1.1,0.9-2,2-2   S53,18.9,53,20z"/><path d="M61,24.1V7.9c1.7-0.4,3-2,3-3.9c0-2.2-1.8-4-4-4c-1.9,0-3.4,1.3-3.9,3H47v2h9.1c0.4,1.4,1.5,2.5,2.9,2.9v16.3   c-1.7,0.4-3,2-3,3.9c0,2.2,1.8,4,4,4s4-1.8,4-4C64,26.1,62.7,24.6,61,24.1z M58,4c0-1.1,0.9-2,2-2s2,0.9,2,2c0,1.1-0.9,2-2,2   S58,5.1,58,4z M60,30c-1.1,0-2-0.9-2-2c0-1.1,0.9-2,2-2s2,0.9,2,2C62,29.1,61.1,30,60,30z"/><path d="M3,7.9V32h2V7.9c1.7-0.4,3-2,3-3.9c0-2.2-1.8-4-4-4S0,1.8,0,4C0,5.9,1.3,7.4,3,7.9z M4,2c1.1,0,2,0.9,2,2c0,1.1-0.9,2-2,2   S2,5.1,2,4C2,2.9,2.9,2,4,2z"/><path d="M4,42c1.9,0,3.4-1.3,3.9-3h29.3c0.4,1.7,2,3,3.9,3c2.2,0,4-1.8,4-4s-1.8-4-4-4c-1.9,0-3.4,1.3-3.9,3H7.9   c-0.4-1.7-2-3-3.9-3c-2.2,0-4,1.8-4,4S1.8,42,4,42z M41,36c1.1,0,2,0.9,2,2c0,1.1-0.9,2-2,2s-2-0.9-2-2C39,36.9,39.9,36,41,36z    M4,36c1.1,0,2,0.9,2,2c0,1.1-0.9,2-2,2s-2-0.9-2-2C2,36.9,2.9,36,4,36z"/><rect x="10" y="3" width="2" height="2"/><rect x="14" y="3" width="2" height="2"/><rect x="43" y="3" width="2" height="2"/><rect x="39" y="3" width="2" height="2"/><rect x="12" y="23" width="2" height="2"/><rect x="12" y="27" width="2" height="2"/><rect x="16" y="27" width="2" height="2"/><rect x="20" y="27" width="2" height="2"/><rect x="47" y="34" width="2" height="2"/><rect x="47" y="38" width="2" height="2"/><rect x="47" y="48" width="2" height="2"/><rect x="47" y="44" width="2" height="2"/><rect x="43" y="52" width="2" height="2"/><rect x="51" y="48" width="2" height="2"/><rect x="39" y="48" width="2" height="2"/><rect x="43" y="48" width="2" height="2"/><rect x="51" y="34" width="2" height="2"/><rect x="10" y="59" width="2" height="2"/><rect x="14" y="59" width="2" height="2"/><rect x="18" y="59" width="2" height="2"/><rect x="22" y="59" width="2" height="2"/><rect x="55" y="34" width="2" height="2"/><rect x="29" y="52" width="2" height="2"/><rect x="12" y="48" width="2" height="2"/><rect x="3" y="52" width="2" height="2"/><rect x="3" y="48" width="2" height="2"/><rect x="29" y="48" width="2" height="2"/><rect x="29" y="44" width="2" height="2"/><rect x="43" y="19" width="2" height="2"/><rect x="39" y="19" width="2" height="2"/><rect x="35" y="19" width="2" height="2"/><rect x="39" y="15" width="2" height="2"/><rect x="53" y="9" width="2" height="2"/></g></svg></g></svg>