<svg width="300" height="300" viewBox="0 0 300 300" xmlns="http://www.w3.org/2000/svg">
  <g fill-rule="nonzero" fill="none">
    <path fill="#FFF" d="M0 0h300v300H0z"/>
    <g fill="#000">
      <path d="M47.6 237.75c-8.03 0-14.6 6.58-14.6 14.63 0 8.04 6.57 14.62 14.6 14.62s14.6-6.58 14.6-14.63c0-8.04-6.57-14.62-14.6-14.62Zm0 21.94c-4.01 0-7.3-3.3-7.3-7.31a7.33 7.33 0 0 1 7.3-7.32c4.02 0 7.3 3.3 7.3 7.31a7.33 7.33 0 0 1-7.3 7.32ZM255.68 238.12v-80.8h-7.3v80.8a15.45 15.45 0 0 0-10.58 10.6h-81.05c-1.46-6.22-7.3-10.97-14.23-10.97-8.03 0-14.6 6.58-14.6 14.63 0 8.04 6.57 14.62 14.6 14.62 6.93 0 12.4-4.75 14.23-10.97h81.41c1.46 6.22 7.3 10.97 14.24 10.97 8.03 0 14.6-6.58 14.6-14.63a15.7 15.7 0 0 0-11.32-14.25Zm-113.16 21.57c-4.02 0-7.3-3.3-7.3-7.31a7.33 7.33 0 0 1 7.3-7.32c4.01 0 7.3 3.3 7.3 7.31a7.33 7.33 0 0 1-7.3 7.32Zm109.51 0c-4.01 0-7.3-3.3-7.3-7.31a7.33 7.33 0 0 1 7.3-7.32c4.02 0 7.3 3.3 7.3 7.31a7.33 7.33 0 0 1-7.3 7.32ZM106.01 197.53c-8.03 0-14.6 6.58-14.6 14.63 0 8.04 6.57 14.62 14.6 14.62s14.6-6.58 14.6-14.62c0-8.05-6.57-14.63-14.6-14.63Zm0 21.94c-4.01 0-7.3-3.3-7.3-7.31a7.33 7.33 0 0 1 7.3-7.32 7.33 7.33 0 0 1 0 14.63ZM80.46 106.13c6.93 0 12.4-4.76 14.23-10.97h44.18v25.96c-6.21 1.46-10.96 7.3-10.96 14.25 0 8.05 6.58 14.63 14.6 14.63 8.04 0 14.6-6.58 14.6-14.63 0-6.94-4.74-12.43-10.94-14.25V61.88c6.2-1.46 10.95-7.3 10.95-14.26 0-8.04-6.57-14.62-14.6-14.62s-14.6 6.58-14.6 14.63c0 6.94 4.74 12.43 10.95 14.25v25.96H94.69c-1.46-6.21-7.3-10.97-14.23-10.97-8.03 0-14.6 6.59-14.6 14.63 0 8.04 6.57 14.63 14.6 14.63Zm69.36 29.25a7.33 7.33 0 0 1-7.3 7.3c-4.02 0-7.3-3.28-7.3-7.3a7.33 7.33 0 0 1 7.3-7.32c4.01 0 7.3 3.3 7.3 7.31Zm-14.6-87.75a7.33 7.33 0 0 1 7.3-7.32c4.01 0 7.3 3.3 7.3 7.31a7.33 7.33 0 0 1-7.3 7.32c-4.02 0-7.3-3.3-7.3-7.31ZM80.46 84.19c4.01 0 7.3 3.29 7.3 7.31a7.33 7.33 0 0 1-7.3 7.31c-4.02 0-7.3-3.29-7.3-7.31a7.33 7.33 0 0 1 7.3-7.31ZM204.58 106.13c0 8.04 6.57 14.62 14.6 14.62s14.6-6.58 14.6-14.63c0-8.04-6.57-14.62-14.6-14.62s-14.6 6.58-14.6 14.63Zm21.9 0a7.33 7.33 0 0 1-7.3 7.3c-4.02 0-7.3-3.28-7.3-7.3a7.33 7.33 0 0 1 7.3-7.32c4.01 0 7.3 3.3 7.3 7.31Z"/>
      <path d="M255.68 121.12V61.88c6.2-1.46 10.95-7.3 10.95-14.26 0-8.04-6.57-14.62-14.6-14.62-6.93 0-12.4 4.75-14.23 10.97h-33.22v7.31h33.22a15.45 15.45 0 0 0 10.58 10.6v59.6c-6.2 1.46-10.95 7.31-10.95 14.26 0 8.04 6.57 14.63 14.6 14.63s14.6-6.59 14.6-14.63c0-7.31-4.74-12.8-10.95-14.62Zm-10.95-73.5a7.33 7.33 0 0 1 7.3-7.3c4.02 0 7.3 3.28 7.3 7.3a7.33 7.33 0 0 1-7.3 7.32c-4.01 0-7.3-3.3-7.3-7.31Zm7.3 95.07c-4.01 0-7.3-3.3-7.3-7.31a7.33 7.33 0 0 1 7.3-7.32c4.02 0 7.3 3.3 7.3 7.31a7.33 7.33 0 0 1-7.3 7.32ZM43.95 61.88V150h7.3V61.88c6.2-1.46 10.95-7.3 10.95-14.26C62.2 39.59 55.63 33 47.6 33S33 39.58 33 47.63c0 6.94 4.75 12.43 10.95 14.25Zm3.65-21.57c4.02 0 7.3 3.3 7.3 7.31a7.33 7.33 0 0 1-7.3 7.32c-4.01 0-7.3-3.3-7.3-7.31a7.33 7.33 0 0 1 7.3-7.32ZM47.6 186.56c6.94 0 12.41-4.75 14.24-10.97H168.8c1.46 6.22 7.3 10.97 14.24 10.97 8.03 0 14.6-6.58 14.6-14.62 0-8.05-6.57-14.63-14.6-14.63-6.94 0-12.41 4.76-14.24 10.97H61.84c-1.46-6.21-7.3-10.97-14.24-10.97-8.03 0-14.6 6.58-14.6 14.63 0 8.04 6.57 14.62 14.6 14.62Zm135.07-21.94a7.33 7.33 0 0 1 0 14.63c-4.01 0-7.3-3.3-7.3-7.31a7.33 7.33 0 0 1 7.3-7.31Zm-135.07 0a7.33 7.33 0 0 1 0 14.63c-4.01 0-7.3-3.3-7.3-7.31a7.33 7.33 0 0 1 7.3-7.31ZM69.51 43.97h7.3v7.31h-7.3zM84.11 43.97h7.3v7.31h-7.3zM189.97 43.97h7.3v7.31h-7.3zM175.37 43.97h7.3v7.31h-7.3zM76.81 117.09h7.3v7.31h-7.3zM76.81 131.72h7.3v7.31h-7.3zM91.41 131.72h7.3v7.31h-7.3zM106.01 131.72h7.3v7.31h-7.3zM204.58 157.31h7.3v7.31h-7.3zM204.58 171.94h7.3v7.31h-7.3zM204.58 208.5h7.3v7.31h-7.3zM204.58 193.88h7.3v7.31h-7.3zM189.97 223.13h7.3v7.31h-7.3zM219.18 208.5h7.3v7.31h-7.3zM175.37 208.5h7.3v7.31h-7.3zM189.97 208.5h7.3v7.31h-7.3zM219.18 157.31h7.3v7.31h-7.3zM69.51 248.72h7.3v7.31h-7.3zM84.11 248.72h7.3v7.31h-7.3zM98.71 248.72h7.3v7.31h-7.3zM113.31 248.72h7.3v7.31h-7.3zM233.78 157.31h7.3v7.31h-7.3zM138.87 223.13h7.3v7.31h-7.3zM76.81 208.5h7.3v7.31h-7.3zM43.95 223.13h7.3v7.31h-7.3zM43.95 208.5h7.3v7.31h-7.3zM138.87 208.5h7.3v7.31h-7.3zM138.87 193.88h7.3v7.31h-7.3zM189.97 102.47h7.3v7.31h-7.3zM175.37 102.47h7.3v7.31h-7.3zM160.77 102.47h7.3v7.31h-7.3zM175.37 87.84h7.3v7.31h-7.3z"/>
      <path d="M226.48 65.91h7.3v7.31h-7.3z"/>
    </g>
  </g>
</svg>